<svg width="617" height="224" viewBox="0 0 617 224" xmlns="http://www.w3.org/2000/svg">
  <g fill="none" fill-rule="evenodd">
    <path d="M97.573 26.333H60.339v96.334H37.234V26.333H0V4.5h97.573v21.833zm48.938 14v22.334a33.202 33.202 0 0 0-6.65-.667c-11.302 0-21.11 5.5-21.11 23.167v37.5H96.645v-82h21.443v12.166C123.073 42 134.377 40 141.357 40c1.83 0 3.492.167 5.154.333zM190.462 155h-23.437l19.282-42.667-34.741-71.666h24.767l21.775 48 20.113-48h23.604L190.462 155zm139.003-31.833H254V5h22.939v96.167h52.526v22zm34.172-.5H341.53v-82h22.108v82zM338.87 13.833C338.87 6.167 345.02 0 352.5 0c7.646 0 13.63 6.167 13.63 13.833 0 7.334-5.984 13.5-13.63 13.5-7.48 0-13.63-6.166-13.63-13.5zm124.237 26.834l-32.746 34.5 33.41 47.5h-27.094l-21.609-31.334-9.142 9.667v21.667H383.82V2h22.107v69.167l28.258-30.5h28.923zm22.675 31.666h36.569c-.333-8.166-5.652-16.166-18.285-16.166-11.47 0-17.786 8.666-18.284 16.166zm38.73 21.334l18.45 5.5c-4.155 14.166-17.12 26-37.234 26-22.44 0-42.22-16.167-42.22-43.834 0-26.166 19.282-43.166 40.226-43.166 25.266 0 40.392 16.166 40.392 42.5 0 3.166-.333 6.5-.333 6.833h-58.51c.499 10.833 9.64 18.667 20.612 18.667 10.305 0 15.957-5.167 18.617-12.5zm26.664 6.166l18.95-4.166c.498 6.5 5.318 12.5 14.96 12.5 7.313 0 10.804-3.834 10.804-8.167 0-3.667-2.494-6.667-8.81-8l-10.805-2.5c-15.79-3.5-22.938-13-22.938-24.5 0-14.667 12.965-26.833 30.585-26.833 23.27 0 31.083 14.833 32.08 23.666L597.553 66c-.665-4.833-4.156-11-13.464-11-5.818 0-10.472 3.5-10.472 8.167 0 4 2.992 6.5 7.48 7.333L592.73 73C608.855 76.333 617 86.167 617 98.167c0 13.333-10.306 27-31.749 27-24.6 0-33.078-16-34.075-25.334z" fill="#FF2D5A"/>
    <!-- <path d="M254 144h27.702c14.992 0 23.465 8.838 23.465 20.84 0 7.966-4.78 14.403-11.19 16.586 7.497 1.854 13.58 8.729 13.58 18.33 0 12.548-9.342 21.605-23.79 21.605H254V144zm14.877 32.73h10.745c6.908 0 11.075-3.923 11.075-9.975 0-6.051-3.838-9.862-11.184-9.862h-10.636v19.837zm0 32.729h12.173c7.283 0 11.63-3.898 11.63-10.247 0-6.237-3.913-10.58-11.412-10.58h-12.391v20.827zm82.333 12.455c-.219-1.1-.437-3.629-.437-5.829-2.95 5.06-9.175 7.26-14.855 7.26-12.999 0-20.426-9.57-20.426-21.337v-34.205h14.527v31.235c0 6.05 3.059 10.888 9.831 10.888 6.445 0 10.158-4.399 10.158-10.668v-31.455h14.528v44.323c0 4.18.328 7.919.546 9.788H351.21zm44.788-69.98v16.024h10.74v12.863h-10.74v22.455c0 4.688 2.17 6.214 6.292 6.214 1.736 0 3.688-.218 4.448-.436v11.99c-1.302.545-3.906 1.308-8.136 1.308-10.414 0-16.923-6.213-16.923-16.568V180.82h-9.654v-12.863h2.712c5.64 0 8.244-3.706 8.244-8.502v-7.522h13.017zm38.68 0v16.024h10.74v12.863h-10.74v22.455c0 4.688 2.17 6.214 6.292 6.214 1.736 0 3.689-.218 4.448-.436v11.99c-1.302.545-3.905 1.308-8.136 1.308-10.414 0-16.922-6.213-16.922-16.568V180.82h-9.655v-12.863h2.712c5.64 0 8.244-3.706 8.244-8.502v-7.522h13.018zm44.461 58.517c7.22 0 13.886-5.161 13.886-15.373s-6.665-15.373-13.886-15.373c-7.22 0-13.885 5.16-13.885 15.373 0 10.102 6.665 15.373 13.885 15.373zm.496-44.631c16.106 0 28.267 12.012 28.267 28.762 0 16.64-12.161 28.762-28.267 28.762-16.105 0-28.266-12.122-28.266-28.762 0-16.75 12.161-28.762 28.266-28.762zm51.588 25.408v31.124h-14.395v-54.11h13.962v6.708c3.248-5.609 9.634-8.139 15.37-8.139 13.205 0 19.266 9.569 19.266 21.447v34.094h-14.395v-31.564c0-6.05-2.923-10.779-9.85-10.779-6.278 0-9.958 4.95-9.958 11.219zm42.138 15.366l12.562-2.755c.331 4.298 3.527 8.265 9.919 8.265 4.848 0 7.163-2.535 7.163-5.4 0-2.424-1.653-4.408-5.841-5.29L590 199.761c-10.47-2.314-15.208-8.595-15.208-16.2 0-9.697 8.596-17.741 20.277-17.741 15.428 0 20.608 9.808 21.269 15.648l-12.232 2.755c-.441-3.196-2.755-7.273-8.927-7.273-3.857 0-6.942 2.314-6.942 5.4 0 2.645 1.983 4.298 4.959 4.849l7.714 1.653c10.69 2.204 16.089 8.705 16.089 16.64 0 8.816-6.832 17.852-21.048 17.852-16.31 0-21.93-10.579-22.591-16.75z" fill="#25282B"/> -->
  </g>
</svg>
